<svg data-v-fde0c5aa="" xmlns="http://www.w3.org/2000/svg" viewBox="0 0 300 300" class="iconLeftSlogan"><!----><defs data-v-fde0c5aa=""><!----></defs><rect data-v-fde0c5aa="" fill="transparent" x="0" y="0" width="300px" height="300px" class="logo-background-square"></rect><defs data-v-fde0c5aa=""><!----></defs><g data-v-fde0c5aa="" id="2d972837-9416-4234-b2f8-dd9750e5f456" fill="#000000" transform="matrix(2.3816145052544586,0,0,2.3816145052544586,116.53153565081539,118.01769807107566)"><path d="M5.25 14.14L5.25 14.14Q4.06 14.14 3.05 13.47L3.05 13.47L3.05 13.47Q2.04 12.80 1.46 11.67L1.46 11.67L1.46 11.67Q0.87 10.54 0.87 9.21L0.87 9.21L0.87 9.21Q0.87 7.87 1.46 6.73L1.46 6.73L1.46 6.73Q2.04 5.59 3.05 4.92L3.05 4.92L3.05 4.92Q4.06 4.26 5.25 4.26L5.25 4.26L5.25 4.26Q6.45 4.26 7.47 4.92L7.47 4.92L7.47 4.92Q8.48 5.59 9.08 6.73L9.08 6.73L9.08 6.73Q9.67 7.87 9.67 9.21L9.67 9.21L9.67 9.21Q9.67 10.54 9.08 11.67L9.08 11.67L9.08 11.67Q8.48 12.80 7.46 13.47L7.46 13.47L7.46 13.47Q6.44 14.14 5.25 14.14L5.25 14.14ZM5.25 13.82L5.25 13.82Q6.48 13.82 7.25 12.70L7.25 12.70L7.25 12.70Q8.01 11.58 8.01 9.21L8.01 9.21L8.01 9.21Q8.01 6.82 7.25 5.71L7.25 5.71L7.25 5.71Q6.50 4.61 5.25 4.61L5.25 4.61L5.25 4.61Q4.02 4.61 3.25 5.72L3.25 5.72L3.25 5.72Q2.49 6.83 2.49 9.21L2.49 9.21L2.49 9.21Q2.49 11.58 3.25 12.70L3.25 12.70L3.25 12.70Q4.02 13.82 5.25 13.82L5.25 13.82ZM11.26 14.01L11.26 14.01Q11.16 14.01 11.16 13.85L11.16 13.85L11.16 13.85Q11.16 13.78 11.19 13.76L11.19 13.76L11.19 13.76Q11.21 13.73 11.30 13.73L11.30 13.73L11.70 13.73L11.70 13.73Q11.83 13.73 11.89 13.64L11.89 13.64L11.89 13.64Q11.94 13.55 11.94 13.41L11.94 13.41L11.94 5.07L11.94 5.07Q11.94 4.90 11.87 4.81L11.87 4.81L11.87 4.81Q11.80 4.72 11.70 4.72L11.70 4.72L11.16 4.72L11.16 4.72Q10.99 4.72 10.99 4.56L10.99 4.56L10.99 4.56Q10.99 4.48 11.03 4.45L11.03 4.45L11.03 4.45Q11.07 4.41 11.17 4.41L11.17 4.41L12.75 4.41L12.75 4.41Q12.96 4.41 12.96 4.62L12.96 4.62L12.96 13.51L12.96 13.51Q12.96 13.64 13.01 13.67L13.01 13.67L13.01 13.67Q13.05 13.71 13.15 13.71L13.15 13.71L13.61 13.71L13.61 13.71Q13.75 13.71 13.75 13.85L13.75 13.85L13.75 13.85Q13.75 14.01 13.61 14.01L13.61 14.01L11.26 14.01ZM17.04 14.14L17.04 14.14Q16.25 14.14 15.90 13.62L15.90 13.62L15.90 13.62Q15.54 13.10 15.54 12.52L15.54 12.52L15.54 8.88L15.54 8.88Q15.54 8.65 15.34 8.65L15.34 8.65L14.87 8.65L14.87 8.65Q14.73 8.65 14.73 8.51L14.73 8.51L14.73 8.51Q14.73 8.37 14.90 8.37L14.90 8.37L16.39 8.37L16.39 8.37Q16.49 8.37 16.53 8.41L16.53 8.41L16.53 8.41Q16.56 8.44 16.56 8.54L16.56 8.54L16.56 12.49L16.56 12.49Q16.56 12.95 16.83 13.24L16.83 13.24L16.83 13.24Q17.09 13.52 17.49 13.52L17.49 13.52L17.49 13.52Q18.05 13.52 18.47 13.08L18.47 13.08L18.47 13.08Q18.89 12.64 18.89 11.52L18.89 11.52L18.89 8.86L18.89 8.86Q18.89 8.74 18.84 8.69L18.84 8.69L18.84 8.69Q18.80 8.65 18.70 8.65L18.70 8.65L18.24 8.65L18.24 8.65Q18.10 8.65 18.10 8.51L18.10 8.51L18.10 8.51Q18.10 8.36 18.24 8.36L18.24 8.36L19.70 8.36L19.70 8.36Q19.82 8.36 19.87 8.40L19.87 8.40L19.87 8.40Q19.92 8.44 19.92 8.54L19.92 8.54L19.92 13.37L19.92 13.37Q19.92 13.54 19.98 13.62L19.98 13.62L19.98 13.62Q20.05 13.71 20.15 13.71L20.15 13.71L20.68 13.71L20.68 13.71Q20.86 13.71 20.86 13.83L20.86 13.83L20.86 13.83Q20.86 13.90 20.80 13.96L20.80 13.96L20.80 13.96Q20.73 14.01 20.65 14.01L20.65 14.01L19.10 14.01L19.10 14.01Q18.98 14.01 18.94 13.97L18.94 13.97L18.94 13.97Q18.89 13.92 18.89 13.79L18.89 13.79L18.89 13.01L18.89 13.01Q18.89 12.95 18.85 12.95L18.85 12.95L18.85 12.95Q18.82 12.95 18.79 13.01L18.79 13.01L18.79 13.01Q18.55 13.41 18.16 13.78L18.16 13.78L18.16 13.78Q17.77 14.14 17.04 14.14L17.04 14.14ZM23.93 14.14L23.93 14.14Q23.84 14.14 23.78 14.08L23.78 14.08L23.78 14.08Q23.72 14.01 23.67 13.93L23.67 13.93L22.01 8.65L21.56 8.65L21.56 8.65Q21.42 8.65 21.42 8.51L21.42 8.51L21.42 8.51Q21.42 8.36 21.59 8.36L21.59 8.36L23.67 8.36L23.67 8.36Q23.81 8.36 23.81 8.51L23.81 8.51L23.81 8.51Q23.81 8.65 23.67 8.65L23.67 8.65L22.96 8.65L24.26 13.01L24.26 13.01Q24.29 13.08 24.33 13.08L24.33 13.08L24.33 13.08Q24.37 13.08 24.39 13.01L24.39 13.01L25.38 9.42L25.38 9.42Q25.40 9.37 25.40 9.27L25.40 9.27L25.40 9.27Q25.40 9.03 25.25 8.84L25.25 8.84L25.25 8.84Q25.10 8.65 24.92 8.65L24.92 8.65L24.72 8.65L24.72 8.65Q24.58 8.65 24.58 8.51L24.58 8.51L24.58 8.51Q24.58 8.36 24.75 8.36L24.75 8.36L26.87 8.36L26.87 8.36Q27.01 8.36 27.01 8.51L27.01 8.51L27.01 8.51Q27.01 8.65 26.87 8.65L26.87 8.65L26.35 8.65L27.64 13.01L27.64 13.01Q27.66 13.08 27.71 13.08L27.71 13.08L27.71 13.08Q27.76 13.08 27.79 13.01L27.79 13.01L28.73 9.42L28.73 9.42Q28.74 9.37 28.74 9.27L28.74 9.27L28.74 9.27Q28.74 9.03 28.61 8.84L28.61 8.84L28.61 8.84Q28.48 8.65 28.28 8.65L28.28 8.65L27.93 8.65L27.93 8.65Q27.79 8.65 27.79 8.51L27.79 8.51L27.79 8.51Q27.79 8.36 27.93 8.36L27.93 8.36L29.71 8.36L29.71 8.36Q29.85 8.36 29.85 8.51L29.85 8.51L29.85 8.51Q29.85 8.65 29.71 8.65L29.71 8.65L29.62 8.65L29.62 8.65Q29.29 8.65 29.15 9.02L29.15 9.02L27.73 13.93L27.73 13.93Q27.71 14.03 27.64 14.08L27.64 14.08L27.64 14.08Q27.57 14.14 27.50 14.14L27.50 14.14L27.31 14.14L27.31 14.14Q27.13 14.14 27.09 13.93L27.09 13.93L25.66 9.46L24.32 13.93L24.32 13.93Q24.28 14.14 24.12 14.14L24.12 14.14L23.93 14.14ZM32.12 14.20L32.12 14.20Q31.32 14.20 30.90 13.75L30.90 13.75L30.90 13.75Q30.49 13.30 30.49 12.67L30.49 12.67L30.49 12.67Q30.49 12.00 30.97 11.56L30.97 11.56L30.97 11.56Q31.46 11.13 32.20 10.93L32.20 10.93L32.20 10.93Q32.91 10.71 33.73 10.71L33.73 10.71L33.92 10.72L33.92 10.46L33.92 10.46Q33.92 9.88 33.85 9.49L33.85 9.49L33.85 9.49Q33.78 9.10 33.50 8.83L33.50 8.83L33.50 8.83Q33.22 8.55 32.65 8.55L32.65 8.55L32.65 8.55Q32.23 8.55 32.10 8.67L32.10 8.67L32.10 8.67Q31.98 8.78 31.98 8.90L31.98 8.90L31.98 8.90Q31.98 8.97 32.05 9.13L32.05 9.13L32.05 9.13Q32.12 9.28 32.12 9.35L32.12 9.35L32.12 9.35Q32.12 9.66 31.95 9.81L31.95 9.81L31.95 9.81Q31.79 10.00 31.51 10.00L31.51 10.00L31.51 10.00Q31.26 10.00 31.07 9.80L31.07 9.80L31.07 9.80Q30.97 9.69 30.93 9.59L30.93 9.59L30.93 9.59Q30.88 9.49 30.88 9.37L30.88 9.37L30.88 9.37Q30.88 9.10 31.07 8.88L31.07 8.88L31.07 8.88Q31.36 8.54 31.84 8.43L31.84 8.43L31.84 8.43Q32.33 8.32 32.76 8.32L32.76 8.32L32.76 8.32Q33.43 8.32 33.88 8.47L33.88 8.47L33.88 8.47Q34.33 8.62 34.59 8.96L34.59 8.96L34.59 8.96Q34.82 9.25 34.87 9.59L34.87 9.59L34.87 9.59Q34.92 9.93 34.92 10.72L34.92 10.72L34.92 12.89L34.92 12.89Q34.92 13.66 35.32 13.66L35.32 13.66L35.32 13.66Q35.55 13.66 35.77 13.44L35.77 13.44L35.77 13.44Q35.80 13.43 35.81 13.41L35.81 13.41L35.81 13.41Q35.83 13.38 35.85 13.38L35.85 13.38L35.85 13.38Q35.94 13.38 35.94 13.48L35.94 13.48L35.94 13.48Q35.94 13.68 35.62 13.91L35.62 13.91L35.62 13.91Q35.31 14.14 35.01 14.14L35.01 14.14L35.01 14.14Q34.65 14.14 34.38 13.87L34.38 13.87L34.38 13.87Q34.10 13.59 33.96 13.19L33.96 13.19L33.96 13.19Q33.92 13.19 33.90 13.17L33.90 13.17L33.90 13.17Q33.88 13.16 33.87 13.19L33.87 13.19L33.87 13.19Q33.26 14.20 32.12 14.20L32.12 14.20ZM32.52 13.71L32.52 13.71Q32.90 13.71 33.22 13.51L33.22 13.51L33.22 13.51Q33.54 13.31 33.73 13.03L33.73 13.03L33.73 13.03Q33.92 12.75 33.92 12.52L33.92 12.52L33.92 10.99L33.92 10.99Q33.52 10.99 33.05 11.05L33.05 11.05L33.05 11.05Q32.59 11.12 32.28 11.27L32.28 11.27L32.28 11.27Q31.81 11.51 31.66 11.91L31.66 11.91L31.66 11.91Q31.51 12.31 31.51 12.63L31.51 12.63L31.51 12.63Q31.51 12.99 31.74 13.35L31.74 13.35L31.74 13.35Q31.96 13.71 32.52 13.71L32.52 13.71ZM40.00 5.52L40.00 5.52Q39.76 5.52 39.59 5.40L39.59 5.40L39.59 5.40Q39.42 5.29 39.41 5.08L39.41 5.08L39.41 4.93L39.41 4.93Q39.41 4.80 39.38 4.74L39.38 4.74L39.38 4.74Q39.34 4.68 39.23 4.68L39.23 4.68L39.23 4.68Q38.65 4.68 38.65 7.03L38.65 7.03L38.65 8.36L40.15 8.36L40.15 8.36Q40.40 8.36 40.40 8.55L40.40 8.55L40.40 8.55Q40.40 8.78 40.15 8.78L40.15 8.78L38.65 8.78L38.65 13.26L38.65 13.26Q38.65 13.44 38.71 13.55L38.71 13.55L38.71 13.55Q38.77 13.66 38.96 13.66L38.96 13.66L39.51 13.66L39.51 13.66Q39.68 13.66 39.68 13.83L39.68 13.83L39.68 13.83Q39.68 13.90 39.64 13.96L39.64 13.96L39.64 13.96Q39.61 14.01 39.55 14.01L39.55 14.01L36.67 14.01L36.67 14.01Q36.58 14.01 36.58 13.89L36.58 13.89L36.58 13.89Q36.58 13.80 36.61 13.75L36.61 13.75L36.61 13.75Q36.64 13.69 36.69 13.69L36.69 13.69L37.32 13.69L37.32 13.69Q37.48 13.69 37.57 13.58L37.57 13.58L37.57 13.58Q37.66 13.47 37.66 13.29L37.66 13.29L37.66 8.78L36.61 8.78L36.61 8.78Q36.54 8.78 36.50 8.71L36.50 8.71L36.50 8.71Q36.47 8.64 36.47 8.55L36.47 8.55L36.47 8.55Q36.47 8.46 36.50 8.41L36.50 8.41L36.50 8.41Q36.53 8.36 36.65 8.36L36.65 8.36L37.66 8.36L37.66 7.01L37.66 7.01Q37.66 6.03 38.00 5.42L38.00 5.42L38.00 5.42Q38.33 4.80 38.81 4.54L38.81 4.54L38.81 4.54Q39.28 4.27 39.72 4.27L39.72 4.27L39.72 4.27Q40.10 4.27 40.36 4.49L40.36 4.49L40.36 4.49Q40.63 4.70 40.63 4.98L40.63 4.98L40.63 4.98Q40.63 5.22 40.46 5.37L40.46 5.37L40.46 5.37Q40.29 5.52 40.00 5.52L40.00 5.52ZM43.86 14.14L43.86 14.14Q43.16 14.14 42.51 13.82L42.51 13.82L42.51 13.82Q41.86 13.50 41.44 12.85L41.44 12.85L41.44 12.85Q41.02 12.19 41.02 11.27L41.02 11.27L41.02 11.27Q41.02 10.36 41.43 9.67L41.43 9.67L41.43 9.67Q41.83 8.99 42.45 8.62L42.45 8.62L42.45 8.62Q43.08 8.25 43.72 8.25L43.72 8.25L43.72 8.25Q44.53 8.25 45.07 8.65L45.07 8.65L45.07 8.65Q45.60 9.04 45.85 9.62L45.85 9.62L45.85 9.62Q46.10 10.19 46.10 10.68L46.10 10.68L46.10 10.68Q46.10 11.02 45.84 11.02L45.84 11.02L42.91 11.02L42.91 11.02Q42.52 11.02 42.35 11.07L42.35 11.07L42.35 11.07Q42.18 11.12 42.18 11.31L42.18 11.31L42.18 11.31Q42.18 12.42 42.59 13.13L42.59 13.13L42.59 13.13Q42.99 13.83 44.09 13.83L44.09 13.83L44.13 13.83L44.13 13.83Q44.59 13.82 45.02 13.57L45.02 13.57L45.02 13.57Q45.44 13.33 45.89 12.67L45.89 12.67L45.89 12.67Q45.93 12.61 46.02 12.61L46.02 12.61L46.02 12.61Q46.09 12.61 46.13 12.66L46.13 12.66L46.13 12.66Q46.17 12.70 46.13 12.78L46.13 12.78L46.13 12.78Q46.07 12.94 45.81 13.26L45.81 13.26L45.81 13.26Q45.54 13.58 45.05 13.86L45.05 13.86L45.05 13.86Q44.55 14.14 43.86 14.14L43.86 14.14ZM42.20 10.67L44.70 10.67L44.70 10.67Q44.91 10.67 44.95 10.63L44.95 10.63L44.95 10.63Q44.98 10.60 44.98 10.42L44.98 10.42L44.98 10.42Q44.98 9.81 44.77 9.16L44.77 9.16L44.77 9.16Q44.55 8.50 43.81 8.50L43.81 8.50L43.81 8.50Q43.22 8.50 42.76 9.04L42.76 9.04L42.76 9.04Q42.29 9.59 42.20 10.67L42.20 10.67ZM47.42 14.01L47.42 14.01Q47.36 14.01 47.34 13.97L47.34 13.97L47.34 13.97Q47.32 13.93 47.32 13.85L47.32 13.85L47.32 13.85Q47.32 13.78 47.35 13.76L47.35 13.76L47.35 13.76Q47.38 13.73 47.46 13.73L47.46 13.73L47.74 13.73L47.74 13.73Q47.87 13.73 47.93 13.64L47.93 13.64L47.93 13.64Q47.99 13.54 47.99 13.41L47.99 13.41L47.99 9.00L47.99 9.00Q47.99 8.85 47.92 8.77L47.92 8.77L47.92 8.77Q47.85 8.69 47.74 8.69L47.74 8.69L47.32 8.69L47.32 8.69Q47.15 8.69 47.15 8.54L47.15 8.54L47.15 8.54Q47.15 8.36 47.33 8.36L47.33 8.36L48.80 8.36L48.80 8.36Q48.92 8.36 48.97 8.41L48.97 8.41L48.97 8.41Q49.03 8.46 49.03 8.58L49.03 8.58L49.03 9.32L49.03 9.32Q49.03 9.42 49.06 9.46L49.06 9.46L49.06 9.46Q49.10 9.49 49.17 9.39L49.17 9.39L49.17 9.39Q49.20 9.37 49.38 9.06L49.38 9.06L49.38 9.06Q49.56 8.75 49.98 8.50L49.98 8.50L49.98 8.50Q50.40 8.25 50.90 8.25L50.90 8.25L50.90 8.25Q51.52 8.25 51.86 8.56L51.86 8.56L51.86 8.56Q52.21 8.88 52.35 9.35L52.35 9.35L52.35 9.35Q52.39 9.42 52.43 9.44L52.43 9.44L52.43 9.44Q52.47 9.46 52.53 9.39L52.53 9.39L52.53 9.39Q52.54 9.37 52.72 9.07L52.72 9.07L52.72 9.07Q52.91 8.76 53.33 8.51L53.33 8.51L53.33 8.51Q53.76 8.25 54.28 8.25L54.28 8.25L54.28 8.25Q55.06 8.25 55.41 8.76L55.41 8.76L55.41 8.76Q55.76 9.28 55.76 9.87L55.76 9.87L55.76 13.51L55.76 13.51Q55.76 13.64 55.82 13.67L55.82 13.67L55.82 13.67Q55.87 13.71 55.99 13.71L55.99 13.71L56.35 13.71L56.35 13.71Q56.49 13.71 56.49 13.85L56.49 13.85L56.49 13.85Q56.49 14.01 56.35 14.01L56.35 14.01L54.19 14.01L54.19 14.01Q54.07 14.01 54.07 13.85L54.07 13.85L54.07 13.85Q54.07 13.78 54.10 13.76L54.10 13.76L54.10 13.76Q54.14 13.73 54.22 13.73L54.22 13.73L54.50 13.73L54.50 13.73Q54.77 13.73 54.77 13.51L54.77 13.51L54.77 9.91L54.77 9.91Q54.77 9.44 54.49 9.14L54.49 9.14L54.49 9.14Q54.22 8.83 53.83 8.83L53.83 8.83L53.83 8.83Q53.52 8.83 53.21 9.02L53.21 9.02L53.21 9.02Q52.89 9.21 52.66 9.67L52.66 9.67L52.66 9.67Q52.43 10.14 52.43 10.91L52.43 10.91L52.43 13.51L52.43 13.51Q52.43 13.64 52.46 13.67L52.46 13.67L52.46 13.67Q52.50 13.71 52.60 13.71L52.60 13.71L53.05 13.71L53.05 13.71Q53.10 13.71 53.14 13.74L53.14 13.74L53.14 13.74Q53.19 13.78 53.19 13.85L53.19 13.85L53.19 13.85Q53.19 14.01 53.05 14.01L53.05 14.01L50.81 14.01L50.81 14.01Q50.75 14.01 50.74 13.97L50.74 13.97L50.74 13.97Q50.72 13.92 50.72 13.85L50.72 13.85L50.72 13.85Q50.72 13.76 50.74 13.75L50.74 13.75L50.74 13.75Q50.75 13.73 50.83 13.73L50.83 13.73L51.16 13.73L51.16 13.73Q51.30 13.73 51.34 13.68L51.34 13.68L51.34 13.68Q51.39 13.62 51.39 13.51L51.39 13.51L51.39 9.91L51.39 9.91Q51.39 9.44 51.13 9.14L51.13 9.14L51.13 9.14Q50.86 8.83 50.46 8.83L50.46 8.83L50.46 8.83Q50.15 8.83 49.83 9.02L49.83 9.02L49.83 9.02Q49.50 9.21 49.27 9.67L49.27 9.67L49.27 9.67Q49.03 10.14 49.03 10.91L49.03 10.91L49.03 13.51L49.03 13.51Q49.03 13.64 49.07 13.67L49.07 13.67L49.07 13.67Q49.11 13.71 49.21 13.71L49.21 13.71L49.64 13.71L49.64 13.71Q49.77 13.71 49.77 13.85L49.77 13.85L49.77 13.85Q49.77 14.01 49.63 14.01L49.63 14.01L47.42 14.01ZM58.93 6.41L58.93 6.41Q58.66 6.41 58.47 6.22L58.47 6.22L58.47 6.22Q58.28 6.02 58.28 5.75L58.28 5.75L58.28 5.75Q58.28 5.49 58.47 5.29L58.47 5.29L58.47 5.29Q58.66 5.08 58.93 5.08L58.93 5.08L58.93 5.08Q59.19 5.08 59.40 5.29L59.40 5.29L59.40 5.29Q59.61 5.50 59.61 5.75L59.61 5.75L59.61 5.75Q59.61 6.02 59.41 6.22L59.41 6.22L59.41 6.22Q59.21 6.41 58.93 6.41L58.93 6.41ZM57.75 14.01L57.75 14.01Q57.69 14.01 57.67 13.97L57.67 13.97L57.67 13.97Q57.65 13.93 57.65 13.85L57.65 13.85L57.65 13.85Q57.65 13.78 57.68 13.76L57.68 13.76L57.68 13.76Q57.71 13.73 57.79 13.73L57.79 13.73L58.18 13.73L58.18 13.73Q58.31 13.73 58.37 13.64L58.37 13.64L58.37 13.64Q58.44 13.54 58.44 13.41L58.44 13.41L58.44 9.00L58.44 9.00Q58.44 8.69 58.18 8.69L58.18 8.69L57.65 8.69L57.65 8.69Q57.48 8.69 57.48 8.54L57.48 8.54L57.48 8.54Q57.48 8.36 57.67 8.36L57.67 8.36L59.25 8.36L59.25 8.36Q59.46 8.36 59.46 8.58L59.46 8.58L59.46 13.51L59.46 13.51Q59.46 13.64 59.50 13.67L59.50 13.67L59.50 13.67Q59.54 13.71 59.64 13.71L59.64 13.71L60.10 13.71L60.10 13.71Q60.24 13.71 60.24 13.85L60.24 13.85L60.24 13.85Q60.24 14.01 60.10 14.01L60.10 14.01L57.75 14.01Z"></path></g><defs data-v-fde0c5aa=""><linearGradient data-v-fde0c5aa="" gradientTransform="rotate(25)" id="ed743b0d-31bf-4ef2-9042-7cfd956249cd" x1="0%" y1="0%" x2="100%" y2="0%"><stop data-v-fde0c5aa="" offset="0%" stop-color="#22526E" stop-opacity="1"></stop><stop data-v-fde0c5aa="" offset="100%" stop-color="#BDB496" stop-opacity="1"></stop></linearGradient></defs><g data-v-fde0c5aa="" id="37b50fe0-aefc-49da-92ab-74496711904f" stroke="none" fill="url(#ed743b0d-31bf-4ef2-9042-7cfd956249cd)" transform="matrix(2.7336965789745244,0,0,2.7336965789745244,39.99933852058802,120.40120959230282)"><path d="M13.635 6.567a7.5 7.5 0 1 1-3.576 10.777h9.653c.08 0 .111-.058.07-.13L13.635 6.567zM9.068.705l8.915 15.448c.038.065.01.117-.062.117H.08c-.072 0-.101-.05-.063-.117L8.933.705c.037-.065.097-.066.135 0z"></path></g><defs data-v-fde0c5aa=""><!----></defs><g data-v-fde0c5aa="" id="08a5d341-0b9f-41fb-942f-b0f4affada18" fill="#000000" transform="matrix(0.7044462876561232,0,0,0.7044462876561232,117.31440354510093,158.4411923640033)"><path d="M1.83 14.38L1.83 14.38L1.83 14.38Q1.83 13.87 2.00 13.07L2.00 13.07L2.00 13.07Q2.16 12.26 2.42 11.33L2.42 11.33L2.42 11.33Q2.67 10.40 3.01 9.43L3.01 9.43L3.01 9.43Q3.35 8.46 3.70 7.60L3.70 7.60L3.70 7.60Q4.05 6.75 4.38 6.10L4.38 6.10L4.38 6.10Q4.72 5.46 4.98 5.18L4.98 5.18L4.98 5.18Q5.12 5.19 5.36 5.29L5.36 5.29L5.36 5.29Q5.59 5.38 5.82 5.50L5.82 5.50L5.82 5.50Q6.06 5.63 6.26 5.78L6.26 5.78L6.26 5.78Q6.45 5.92 6.51 6.05L6.51 6.05L6.51 6.05Q6.10 6.41 5.71 7.15L5.71 7.15L5.71 7.15Q5.31 7.88 4.94 8.82L4.94 8.82L4.94 8.82Q4.56 9.76 4.24 10.80L4.24 10.80L4.24 10.80Q3.92 11.84 3.68 12.82L3.68 12.82L3.68 12.82Q3.44 13.80 3.31 14.64L3.31 14.64L3.31 14.64Q3.18 15.48 3.18 16.00L3.18 16.00L3.18 16.00Q3.18 16.24 3.22 16.30L3.22 16.30L3.22 16.30Q2.91 16.28 2.77 16.19L2.77 16.19L2.77 16.19Q2.63 16.10 2.56 16.00L2.56 16.00L2.56 16.00Q2.48 15.89 2.42 15.79L2.42 15.79L2.42 15.79Q2.35 15.68 2.23 15.62L2.23 15.62L2.23 15.62Q2.13 15.58 2.06 15.43L2.06 15.43L2.06 15.43Q1.99 15.27 1.94 15.09L1.94 15.09L1.94 15.09Q1.89 14.90 1.86 14.70L1.86 14.70L1.86 14.70Q1.83 14.50 1.83 14.38ZM20.58 10.72L20.58 10.72L20.58 10.72Q20.94 10.72 21.15 10.98L21.15 10.98L21.15 10.98Q21.36 11.23 21.36 11.68L21.36 11.68L21.36 11.68Q21.36 11.79 21.35 11.91L21.35 11.91L21.35 11.91Q21.34 12.03 21.31 12.11L21.31 12.11L21.31 12.11Q21.01 12.04 20.66 12.03L20.66 12.03L20.66 12.03Q20.58 12.64 20.22 13.32L20.22 13.32L20.22 13.32Q19.85 14 19.33 14.60L19.33 14.60L19.33 14.60Q18.82 15.19 18.20 15.64L18.20 15.64L18.20 15.64Q17.58 16.09 16.98 16.24L16.98 16.24L16.98 16.24Q15.11 16.20 14.25 15.27L14.25 15.27L14.25 15.27Q13.38 14.34 13.38 12.36L13.38 12.36L13.38 12.36Q13.38 10.92 13.92 9.57L13.92 9.57L13.92 9.57Q14.45 8.22 15.33 7.17L15.33 7.17L15.33 7.17Q16.21 6.12 17.35 5.48L17.35 5.48L17.35 5.48Q18.49 4.84 19.73 4.84L19.73 4.84L19.73 4.84Q20.69 4.84 21.23 5.25L21.23 5.25L21.23 5.25Q21.77 5.66 21.77 6.40L21.77 6.40L21.77 6.40Q21.77 6.89 21.54 7.31L21.54 7.31L21.54 7.31Q21.31 7.73 20.78 8.22L20.78 8.22L20.78 8.22Q20.45 8.12 20.22 7.88L20.22 7.88L20.22 7.88Q19.98 7.63 19.92 7.31L19.92 7.31L19.92 7.31Q20.40 6.96 20.59 6.66L20.59 6.66L20.59 6.66Q20.79 6.37 20.79 5.96L20.79 5.96L20.79 5.96Q20.79 5.32 20.02 5.32L20.02 5.32L20.02 5.32Q19.39 5.32 18.67 5.79L18.67 5.79L18.67 5.79Q17.95 6.26 17.22 7.14L17.22 7.14L17.22 7.14Q16.18 8.39 15.71 9.71L15.71 9.71L15.71 9.71Q15.23 11.03 15.23 12.68L15.23 12.68L15.23 12.68Q15.23 13.30 15.36 13.80L15.36 13.80L15.36 13.80Q15.48 14.31 15.69 14.69L15.69 14.69L15.69 14.69Q15.90 15.06 16.19 15.29L16.19 15.29L16.19 15.29Q16.48 15.51 16.81 15.54L16.81 15.54L16.81 15.54Q17.26 15.44 17.71 15.09L17.71 15.09L17.71 15.09Q18.16 14.73 18.53 14.25L18.53 14.25L18.53 14.25Q18.90 13.76 19.16 13.21L19.16 13.21L19.16 13.21Q19.42 12.66 19.47 12.15L19.47 12.15L19.47 12.15Q19.08 12.24 18.73 12.31L18.73 12.31L18.73 12.31Q18.37 12.39 18.05 12.39L18.05 12.39L18.05 12.39Q17.63 12.39 17.31 12.18L17.31 12.18L17.31 12.18Q17.00 11.97 16.88 11.61L16.88 11.61L16.88 11.61Q17.14 11.47 17.62 11.31L17.62 11.31L17.62 11.31Q18.10 11.16 18.65 11.03L18.65 11.03L18.65 11.03Q19.19 10.89 19.72 10.81L19.72 10.81L19.72 10.81Q20.24 10.72 20.58 10.72ZM30.17 16.24L30.17 16.24L30.17 16.24Q29.37 16.00 29.09 15.79L29.09 15.79L29.09 15.79Q28.81 15.57 28.81 15.19L28.81 15.19L28.81 15.19Q28.81 14.77 29.01 14.01L29.01 14.01L29.01 14.01Q29.20 13.24 29.52 12.31L29.52 12.31L29.52 12.31Q29.83 11.37 30.24 10.35L30.24 10.35L30.24 10.35Q30.65 9.32 31.07 8.39L31.07 8.39L31.07 8.39Q31.49 7.45 31.88 6.67L31.88 6.67L31.88 6.67Q32.28 5.89 32.59 5.46L32.59 5.46L32.49 4.87L32.49 4.87Q32.69 4.87 33.04 4.97L33.04 4.97L33.04 4.97Q33.39 5.07 33.75 5.21L33.75 5.21L33.75 5.21Q34.10 5.35 34.38 5.49L34.38 5.49L34.38 5.49Q34.65 5.64 34.68 5.74L34.68 5.74L34.68 5.74Q34.61 6.08 34.57 6.76L34.57 6.76L34.57 6.76Q34.52 7.43 34.52 8.20L34.52 8.20L34.52 8.20Q34.52 9.73 34.64 11.19L34.64 11.19L34.64 11.19Q34.76 12.66 35.20 14.17L35.20 14.17L35.20 14.17Q35.42 13.05 35.68 11.94L35.68 11.94L35.68 11.94Q35.94 10.82 36.22 9.81L36.22 9.81L36.22 9.81Q36.50 8.79 36.78 7.92L36.78 7.92L36.78 7.92Q37.06 7.06 37.32 6.40L37.32 6.40L37.32 6.40Q37.58 5.75 37.80 5.38L37.80 5.38L37.80 5.38Q38.02 5.01 38.21 4.98L38.21 4.98L38.21 4.98Q38.36 5.01 38.54 5.10L38.54 5.10L38.54 5.10Q38.72 5.19 38.89 5.32L38.89 5.32L38.89 5.32Q39.06 5.45 39.20 5.60L39.20 5.60L39.20 5.60Q39.34 5.75 39.42 5.91L39.42 5.91L39.42 5.91Q38.98 6.09 38.53 6.76L38.53 6.76L38.53 6.76Q38.09 7.43 37.70 8.39L37.70 8.39L37.70 8.39Q37.30 9.35 36.95 10.47L36.95 10.47L36.95 10.47Q36.61 11.59 36.35 12.68L36.35 12.68L36.35 12.68Q36.09 13.76 35.95 14.69L35.95 14.69L35.95 14.69Q35.80 15.61 35.78 16.17L35.78 16.17L35.78 16.17Q35.78 16.20 35.80 16.21L35.80 16.21L35.80 16.21Q35.76 16.23 35.71 16.23L35.71 16.23L35.71 16.23Q35.66 16.23 35.62 16.23L35.62 16.23L35.62 16.23Q34.97 16.23 34.47 16.07L34.47 16.07L34.47 16.07Q33.98 15.90 33.82 15.61L33.82 15.61L33.82 15.61Q33.53 14.43 33.33 13.34L33.33 13.34L33.33 13.34Q33.14 12.25 33.00 11.16L33.00 11.16L33.00 11.16Q32.87 10.07 32.80 8.95L32.80 8.95L32.80 8.95Q32.72 7.84 32.68 6.62L32.68 6.62L32.68 6.62Q32.41 7.04 32.12 7.72L32.12 7.72L32.12 7.72Q31.82 8.40 31.54 9.21L31.54 9.21L31.54 9.21Q31.26 10.02 31.00 10.92L31.00 10.92L31.00 10.92Q30.74 11.82 30.55 12.67L30.55 12.67L30.55 12.67Q30.35 13.52 30.24 14.29L30.24 14.29L30.24 14.29Q30.13 15.05 30.13 15.61L30.13 15.61L30.13 15.61Q30.13 15.90 30.13 16.03L30.13 16.03L30.13 16.03Q30.14 16.16 30.17 16.24ZM45.91 14.38L45.91 14.38L45.91 14.38Q45.91 13.87 46.07 13.07L46.07 13.07L46.07 13.07Q46.23 12.26 46.49 11.33L46.49 11.33L46.49 11.33Q46.75 10.40 47.08 9.43L47.08 9.43L47.08 9.43Q47.42 8.46 47.77 7.60L47.77 7.60L47.77 7.60Q48.12 6.75 48.45 6.10L48.45 6.10L48.45 6.10Q48.79 5.46 49.06 5.18L49.06 5.18L49.06 5.18Q49.20 5.19 49.43 5.29L49.43 5.29L49.43 5.29Q49.66 5.38 49.90 5.50L49.90 5.50L49.90 5.50Q50.13 5.63 50.33 5.78L50.33 5.78L50.33 5.78Q50.53 5.92 50.58 6.05L50.58 6.05L50.58 6.05Q50.18 6.41 49.78 7.15L49.78 7.15L49.78 7.15Q49.38 7.88 49.01 8.82L49.01 8.82L49.01 8.82Q48.64 9.76 48.31 10.80L48.31 10.80L48.31 10.80Q47.99 11.84 47.75 12.82L47.75 12.82L47.75 12.82Q47.52 13.80 47.38 14.64L47.38 14.64L47.38 14.64Q47.25 15.48 47.25 16.00L47.25 16.00L47.25 16.00Q47.25 16.24 47.29 16.30L47.29 16.30L47.29 16.30Q46.98 16.28 46.84 16.19L46.84 16.19L46.84 16.19Q46.70 16.10 46.63 16.00L46.63 16.00L46.63 16.00Q46.55 15.89 46.49 15.79L46.49 15.79L46.49 15.79Q46.42 15.68 46.30 15.62L46.30 15.62L46.30 15.62Q46.20 15.58 46.13 15.43L46.13 15.43L46.13 15.43Q46.06 15.27 46.01 15.09L46.01 15.09L46.01 15.09Q45.96 14.90 45.93 14.70L45.93 14.70L45.93 14.70Q45.91 14.50 45.91 14.38ZM59.67 6.69L59.67 6.69L59.67 6.69Q59.11 6.69 58.81 6.38L58.81 6.38L58.81 6.38Q58.51 6.06 58.51 5.61L58.51 5.61L58.51 5.61Q58.51 5.50 58.54 5.35L58.54 5.35L58.54 5.35Q58.58 5.19 58.63 5.08L58.63 5.08L58.63 5.08Q58.81 5.17 59.17 5.20L59.17 5.20L59.17 5.20Q59.53 5.24 60.00 5.24L60.00 5.24L60.00 5.24Q60.72 5.24 61.62 5.17L61.62 5.17L61.62 5.17Q62.52 5.11 63.35 5.04L63.35 5.04L63.35 5.04Q64.18 4.97 64.81 4.91L64.81 4.91L64.81 4.91Q65.44 4.84 65.62 4.84L65.62 4.84L65.62 4.84Q66.14 4.84 66.37 5.23L66.37 5.23L66.37 5.23Q66.60 5.61 66.71 6.26L66.71 6.26L66.71 6.26Q66.35 6.23 65.99 6.21L65.99 6.21L65.99 6.21Q65.63 6.19 65.38 6.19L65.38 6.19L65.38 6.19Q64.93 6.19 64.48 6.22L64.48 6.22L64.48 6.22Q64.02 6.24 63.56 6.30L63.56 6.30L63.56 6.30Q63.36 6.71 63.13 7.26L63.13 7.26L63.13 7.26Q62.89 7.81 62.66 8.41L62.66 8.41L62.66 8.41Q62.43 9.02 62.22 9.61L62.22 9.61L62.22 9.61Q62.01 10.21 61.85 10.68L61.85 10.68L61.85 10.68Q61.54 11.61 61.31 12.39L61.31 12.39L61.31 12.39Q61.08 13.17 60.91 13.85L60.91 13.85L60.91 13.85Q60.73 14.53 60.61 15.15L60.61 15.15L60.61 15.15Q60.48 15.76 60.38 16.35L60.38 16.35L60.38 16.35Q59.44 16.21 58.81 15.18L58.81 15.18L58.81 15.18Q58.93 14.74 59.09 14.23L59.09 14.23L59.09 14.23Q59.25 13.72 59.46 13.07L59.46 13.07L59.46 13.07Q59.68 12.42 59.98 11.59L59.98 11.59L59.98 11.59Q60.27 10.77 60.65 9.72L60.65 9.72L60.65 9.72Q60.79 9.32 60.94 8.90L60.94 8.90L60.94 8.90Q61.10 8.47 61.24 8.05L61.24 8.05L61.24 8.05Q61.39 7.63 61.51 7.24L61.51 7.24L61.51 7.24Q61.63 6.85 61.71 6.52L61.71 6.52L61.71 6.52Q61.12 6.59 60.60 6.64L60.60 6.64L60.60 6.64Q60.07 6.69 59.67 6.69ZM77.91 9.21L77.91 9.21L77.91 9.21Q78.37 9.21 78.63 9.46L78.63 9.46L78.63 9.46Q78.89 9.72 78.89 10.16L78.89 10.16L78.89 10.16Q78.89 10.28 78.87 10.39L78.87 10.39L78.87 10.39Q78.85 10.51 78.82 10.60L78.82 10.60L78.82 10.60Q78.64 10.57 78.41 10.55L78.41 10.55L78.41 10.55Q78.19 10.53 77.88 10.53L77.88 10.53L77.88 10.53Q77.28 10.53 76.66 10.63L76.66 10.63L76.66 10.63Q76.05 10.74 75.49 10.81L75.49 10.81L75.49 10.81Q75.17 11.55 74.90 12.24L74.90 12.24L74.90 12.24Q74.63 12.94 74.44 13.51L74.44 13.51L74.44 13.51Q74.26 14.08 74.15 14.50L74.15 14.50L74.15 14.50Q74.05 14.92 74.03 15.13L74.03 15.13L74.03 15.13Q75.17 14.90 76.32 14.73L76.32 14.73L76.32 14.73Q77.48 14.56 78.75 14.48L78.75 14.48L78.75 14.48Q78.90 14.71 79.01 14.99L79.01 14.99L79.01 14.99Q79.11 15.27 79.11 15.60L79.11 15.60L79.11 15.60Q79.11 15.68 79.11 15.78L79.11 15.78L79.11 15.78Q79.11 15.88 79.09 15.97L79.09 15.97L79.09 15.97Q78.69 15.96 78.26 15.95L78.26 15.95L78.26 15.95Q77.83 15.95 77.13 15.95L77.13 15.95L77.13 15.95Q76.66 15.95 76.25 15.97L76.25 15.97L76.25 15.97Q75.84 15.99 75.42 16.03L75.42 16.03L75.42 16.03Q75.00 16.07 74.53 16.14L74.53 16.14L74.53 16.14Q74.06 16.21 73.47 16.31L73.47 16.31L73.47 16.31Q72.83 16.06 72.23 15.08L72.23 15.08L72.23 15.08Q72.46 14.57 72.89 13.54L72.89 13.54L72.89 13.54Q73.32 12.52 73.98 10.79L73.98 10.79L73.98 10.79Q73.35 10.60 73.15 10.09L73.15 10.09L73.15 10.09Q73.22 10.02 73.56 9.92L73.56 9.92L73.56 9.92Q73.89 9.81 74.38 9.70L74.38 9.70L74.38 9.70Q74.59 9.16 74.74 8.75L74.74 8.75L74.74 8.75Q74.89 8.34 75.00 7.99L75.00 7.99L75.00 7.99Q75.11 7.63 75.20 7.29L75.20 7.29L75.20 7.29Q75.29 6.94 75.38 6.54L75.38 6.54L75.38 6.54Q74.89 6.51 74.61 6.27L74.61 6.27L74.61 6.27Q74.33 6.02 74.33 5.63L74.33 5.63L74.33 5.63Q74.33 5.52 74.36 5.36L74.36 5.36L74.36 5.36Q74.40 5.21 74.44 5.10L74.44 5.10L74.44 5.10Q74.72 5.14 74.98 5.15L74.98 5.15L74.98 5.15Q75.24 5.17 75.66 5.17L75.66 5.17L75.66 5.17Q76.54 5.17 77.31 5.12L77.31 5.12L77.31 5.12Q78.08 5.07 78.70 5.01L78.70 5.01L78.70 5.01Q79.32 4.96 79.77 4.91L79.77 4.91L79.77 4.91Q80.22 4.86 80.46 4.86L80.46 4.86L80.46 4.86Q80.78 4.86 81.03 5.19L81.03 5.19L81.03 5.19Q81.28 5.53 81.41 6.15L81.41 6.15L81.41 6.15Q80.98 6.10 80.70 6.09L80.70 6.09L80.70 6.09Q80.43 6.08 80.22 6.08L80.22 6.08L80.22 6.08Q79.45 6.08 78.81 6.15L78.81 6.15L78.81 6.15Q78.18 6.23 77.59 6.31L77.59 6.31L77.59 6.31Q77.50 6.44 77.40 6.64L77.40 6.64L77.40 6.64Q77.29 6.83 77.13 7.18L77.13 7.18L77.13 7.18Q76.96 7.53 76.71 8.06L76.71 8.06L76.71 8.06Q76.47 8.60 76.12 9.39L76.12 9.39L76.12 9.39Q76.65 9.31 77.12 9.26L77.12 9.26L77.12 9.26Q77.59 9.21 77.91 9.21ZM107.52 7.63L107.52 7.63L107.52 7.63Q107.52 8.40 107.13 9.10L107.13 9.10L107.13 9.10Q106.75 9.80 106.10 10.32L106.10 10.32L106.10 10.32Q105.45 10.85 104.57 11.16L104.57 11.16L104.57 11.16Q103.70 11.47 102.72 11.47L102.72 11.47L102.72 11.47Q102.37 11.47 102.16 11.38L102.16 11.38L102.16 11.38Q101.96 11.28 101.71 11.02L101.71 11.02L101.71 11.02Q101.01 12.54 100.57 13.82L100.57 13.82L100.57 13.82Q100.13 15.11 99.88 16.31L99.88 16.31L99.88 16.31Q99.34 16.18 99.01 15.87L99.01 15.87L99.01 15.87Q98.67 15.55 98.39 15.08L98.39 15.08L98.39 15.08Q98.53 14.81 98.73 14.38L98.73 14.38L98.73 14.38Q98.92 13.94 99.20 13.31L99.20 13.31L99.20 13.31Q99.48 12.67 99.85 11.78L99.85 11.78L99.85 11.78Q100.23 10.89 100.73 9.70L100.73 9.70L100.73 9.70Q100.95 9.16 101.12 8.75L101.12 8.75L101.12 8.75Q101.29 8.34 101.42 7.99L101.42 7.99L101.42 7.99Q101.54 7.63 101.65 7.28L101.65 7.28L101.65 7.28Q101.75 6.93 101.86 6.51L101.86 6.51L101.86 6.51Q101.21 6.72 100.65 7L100.65 7L100.65 7Q100.10 7.28 99.74 7.59L99.74 7.59L99.74 7.59Q99.61 7.50 99.48 7.34L99.48 7.34L99.48 7.34Q99.34 7.17 99.23 6.96L99.23 6.96L99.23 6.96Q99.12 6.76 99.04 6.55L99.04 6.55L99.04 6.55Q98.95 6.34 98.94 6.17L98.94 6.17L98.94 6.17Q99.34 5.89 99.95 5.66L99.95 5.66L99.95 5.66Q100.55 5.42 101.23 5.24L101.23 5.24L101.23 5.24Q101.92 5.07 102.65 4.97L102.65 4.97L102.65 4.97Q103.39 4.87 104.06 4.87L104.06 4.87L104.06 4.87Q104.86 4.87 105.50 5.07L105.50 5.07L105.50 5.07Q106.15 5.28 106.60 5.64L106.60 5.64L106.60 5.64Q107.04 6.01 107.28 6.51L107.28 6.51L107.28 6.51Q107.52 7.01 107.52 7.63ZM105.03 5.95L105.03 5.95L105.03 5.95Q104.50 5.95 103.94 6.03L103.94 6.03L104.10 6.29L104.10 6.29Q103.96 6.47 103.75 6.83L103.75 6.83L103.75 6.83Q103.54 7.20 103.29 7.71L103.29 7.71L103.29 7.71Q103.04 8.22 102.74 8.85L102.74 8.85L102.74 8.85Q102.44 9.48 102.10 10.18L102.10 10.18L102.10 10.18Q103.19 10.18 104.09 9.97L104.09 9.97L104.09 9.97Q104.99 9.77 105.62 9.41L105.62 9.41L105.62 9.41Q106.26 9.06 106.62 8.58L106.62 8.58L106.62 8.58Q106.97 8.11 106.97 7.56L106.97 7.56L106.97 7.56Q106.97 6.83 106.48 6.39L106.48 6.39L106.48 6.39Q105.99 5.95 105.03 5.95ZM114.60 16.24L114.60 16.24L114.60 16.24Q113.93 16.04 113.67 15.85L113.67 15.85L113.67 15.85Q113.41 15.65 113.41 15.36L113.41 15.36L113.41 15.36Q113.41 15.13 113.54 14.73L113.54 14.73L113.54 14.73Q113.67 14.32 113.91 13.77L113.91 13.77L113.91 13.77Q114.16 13.22 114.50 12.54L114.50 12.54L114.50 12.54Q114.84 11.87 115.28 11.10L115.28 11.10L115.28 11.10Q114.91 11.09 114.62 11.08L114.62 11.08L114.62 11.08Q114.34 11.07 114.16 11.07L114.16 11.07L114.16 11.07Q114.24 10.86 114.63 10.71L114.63 10.71L114.63 10.71Q115.02 10.56 115.67 10.44L115.67 10.44L115.67 10.44Q116.21 9.53 116.84 8.71L116.84 8.71L116.84 8.71Q117.46 7.88 118.09 7.19L118.09 7.19L118.09 7.19Q118.72 6.50 119.35 5.97L119.35 5.97L119.35 5.97Q119.98 5.45 120.55 5.14L120.55 5.14L120.55 5.14Q120.57 5.04 120.57 4.97L120.57 4.97L120.57 4.97Q120.58 4.90 120.58 4.87L120.58 4.87L120.58 4.87Q120.78 4.87 121.11 4.97L121.11 4.97L121.11 4.97Q121.44 5.07 121.75 5.21L121.75 5.21L121.75 5.21Q122.07 5.35 122.31 5.49L122.31 5.49L122.31 5.49Q122.56 5.64 122.58 5.74L122.58 5.74L122.58 5.74Q122.12 6.55 121.67 8.17L121.67 8.17L121.67 8.17Q121.23 9.79 120.93 12.04L120.93 12.04L120.93 12.04Q120.86 12.60 120.81 13.31L120.81 13.31L120.81 13.31Q120.76 14.03 120.76 14.91L120.76 14.91L120.76 14.91Q120.76 15.22 120.76 15.54L120.76 15.54L120.76 15.54Q120.76 15.86 120.79 16.21L120.79 16.21L120.79 16.21Q120.76 16.23 120.74 16.23L120.74 16.23L120.74 16.23Q120.71 16.23 120.62 16.23L120.62 16.23L120.62 16.23Q120.43 16.23 120.17 16.16L120.17 16.16L120.17 16.16Q119.91 16.10 119.66 16.01L119.66 16.01L119.66 16.01Q119.42 15.92 119.24 15.81L119.24 15.81L119.24 15.81Q119.07 15.69 119.03 15.61L119.03 15.61L119.03 15.61Q119.01 15.43 119.01 15.25L119.01 15.25L119.01 15.25Q119.01 15.08 119.01 14.88L119.01 14.88L119.01 14.88Q119.01 14.01 119.08 13.12L119.08 13.12L119.08 13.12Q119.14 12.22 119.29 11.27L119.29 11.27L119.29 11.27Q119.10 11.26 118.78 11.23L118.78 11.23L118.78 11.23Q118.45 11.21 118.05 11.20L118.05 11.20L118.05 11.20Q117.66 11.19 117.20 11.16L117.20 11.16L117.20 11.16Q116.75 11.14 116.31 11.13L116.31 11.13L116.31 11.13Q115.98 11.76 115.68 12.38L115.68 12.38L115.68 12.38Q115.39 13.01 115.18 13.64L115.18 13.64L115.18 13.64Q114.94 14.31 114.79 14.98L114.79 14.98L114.79 14.98Q114.65 15.65 114.60 16.24ZM120.01 7.83L120.01 7.83L120.01 7.83Q120.06 7.63 120.14 7.29L120.14 7.29L120.14 7.29Q120.22 6.94 120.29 6.57L120.29 6.57L120.29 6.57Q119.94 6.69 119.51 7.03L119.51 7.03L119.51 7.03Q119.08 7.36 118.63 7.86L118.63 7.86L118.63 7.86Q118.17 8.36 117.70 8.98L117.70 8.98L117.70 8.98Q117.24 9.60 116.80 10.30L116.80 10.30L116.80 10.30Q117.98 10.21 119.48 10.18L119.48 10.18L119.48 10.18Q119.59 9.59 119.72 9.01L119.72 9.01L119.72 9.01Q119.85 8.43 120.01 7.83ZM138.99 5.74L138.99 5.74L138.99 5.74Q139.03 5.98 139.05 6.07L139.05 6.07L139.05 6.07Q139.08 6.16 139.08 6.31L139.08 6.31L139.08 6.31Q139.08 6.78 138.87 7.18L138.87 7.18L138.87 7.18Q138.67 7.57 138.32 7.74L138.32 7.74L138.32 7.74Q138.04 7.36 137.63 7.09L137.63 7.09L137.63 7.09Q137.23 6.82 136.74 6.64L136.74 6.64L136.74 6.64Q136.26 6.47 135.74 6.38L135.74 6.38L135.74 6.38Q135.23 6.30 134.74 6.30L134.74 6.30L134.74 6.30Q134.25 6.30 133.82 6.38L133.82 6.38L133.82 6.38Q133.39 6.45 133.06 6.59L133.06 6.59L133.06 6.59Q132.73 6.72 132.54 6.92L132.54 6.92L132.54 6.92Q132.36 7.11 132.36 7.36L132.36 7.36L132.36 7.36Q132.40 7.67 132.73 7.99L132.73 7.99L132.73 7.99Q133.07 8.30 133.56 8.60L133.56 8.60L133.56 8.60Q134.05 8.90 134.64 9.20L134.64 9.20L134.64 9.20Q135.24 9.49 135.81 9.76L135.81 9.76L135.81 9.76Q136.53 10.09 137.05 10.38L137.05 10.38L137.05 10.38Q137.56 10.67 137.90 11.01L137.90 11.01L137.90 11.01Q138.24 11.35 138.40 11.79L138.40 11.79L138.40 11.79Q138.57 12.22 138.57 12.84L138.57 12.84L138.57 12.84Q138.57 13.55 138.33 14.18L138.33 14.18L138.33 14.18Q138.10 14.80 137.64 15.26L137.64 15.26L137.64 15.26Q137.19 15.72 136.54 15.98L136.54 15.98L136.54 15.98Q135.90 16.24 135.10 16.24L135.10 16.24L135.10 16.24Q134.32 16.24 133.41 16.00L133.41 16.00L133.41 16.00Q132.50 15.76 131.70 15.35L131.70 15.35L131.70 15.35Q130.91 14.94 130.39 14.40L130.39 14.40L130.39 14.40Q129.86 13.86 129.86 13.26L129.86 13.26L129.86 13.26Q129.86 12.98 130.02 12.54L130.02 12.54L130.02 12.54Q130.19 12.11 130.61 11.63L130.61 11.63L130.61 11.63Q130.65 12.05 131.06 12.63L131.06 12.63L131.06 12.63Q131.47 13.20 132.30 13.69L132.30 13.69L132.30 13.69Q133.07 14.14 133.89 14.34L133.89 14.34L133.89 14.34Q134.71 14.55 135.42 14.55L135.42 14.55L135.42 14.55Q136.21 14.55 136.70 14.35L136.70 14.35L136.70 14.35Q137.19 14.15 137.47 13.88L137.47 13.88L137.47 13.88Q137.75 13.61 137.86 13.33L137.86 13.33L137.86 13.33Q137.97 13.05 137.98 12.88L137.98 12.88L137.98 12.88Q137.97 12.60 137.72 12.34L137.72 12.34L137.72 12.34Q137.48 12.08 137.07 11.84L137.07 11.84L137.07 11.84Q136.65 11.59 136.11 11.34L136.11 11.34L136.11 11.34Q135.56 11.09 134.97 10.84L134.97 10.84L134.97 10.84Q134.09 10.44 133.45 10.10L133.45 10.10L133.45 10.10Q132.82 9.76 132.41 9.40L132.41 9.40L132.41 9.40Q131.99 9.04 131.80 8.65L131.80 8.65L131.80 8.65Q131.61 8.26 131.61 7.76L131.61 7.76L131.61 7.76Q131.61 6.97 132.09 6.27L132.09 6.27L132.09 6.27Q132.57 5.57 133.46 5.21L133.46 5.21L133.46 5.21Q133.91 5.01 134.42 4.93L134.42 4.93L134.42 4.93Q134.93 4.84 135.42 4.84L135.42 4.84L135.42 4.84Q136.35 4.84 137.23 5.10L137.23 5.10L137.23 5.10Q138.11 5.35 138.99 5.74ZM155.82 5.74L155.82 5.74L155.82 5.74Q155.86 5.98 155.88 6.07L155.88 6.07L155.88 6.07Q155.90 6.16 155.90 6.31L155.90 6.31L155.90 6.31Q155.90 6.78 155.70 7.18L155.70 7.18L155.70 7.18Q155.50 7.57 155.15 7.74L155.15 7.74L155.15 7.74Q154.87 7.36 154.46 7.09L154.46 7.09L154.46 7.09Q154.06 6.82 153.57 6.64L153.57 6.64L153.57 6.64Q153.09 6.47 152.57 6.38L152.57 6.38L152.57 6.38Q152.05 6.30 151.56 6.30L151.56 6.30L151.56 6.30Q151.07 6.30 150.65 6.38L150.65 6.38L150.65 6.38Q150.22 6.45 149.89 6.59L149.89 6.59L149.89 6.59Q149.56 6.72 149.37 6.92L149.37 6.92L149.37 6.92Q149.18 7.11 149.18 7.36L149.18 7.36L149.18 7.36Q149.23 7.67 149.56 7.99L149.56 7.99L149.56 7.99Q149.90 8.30 150.39 8.60L150.39 8.60L150.39 8.60Q150.88 8.90 151.47 9.20L151.47 9.20L151.47 9.20Q152.07 9.49 152.64 9.76L152.64 9.76L152.64 9.76Q153.36 10.09 153.87 10.38L153.87 10.38L153.87 10.38Q154.39 10.67 154.73 11.01L154.73 11.01L154.73 11.01Q155.06 11.35 155.23 11.79L155.23 11.79L155.23 11.79Q155.40 12.22 155.40 12.84L155.40 12.84L155.40 12.84Q155.40 13.55 155.16 14.18L155.16 14.18L155.16 14.18Q154.92 14.80 154.47 15.26L154.47 15.26L154.47 15.26Q154.01 15.72 153.37 15.98L153.37 15.98L153.37 15.98Q152.73 16.24 151.93 16.24L151.93 16.24L151.93 16.24Q151.14 16.24 150.23 16.00L150.23 16.00L150.23 16.00Q149.32 15.76 148.53 15.35L148.53 15.35L148.53 15.35Q147.74 14.94 147.22 14.40L147.22 14.40L147.22 14.40Q146.69 13.86 146.69 13.26L146.69 13.26L146.69 13.26Q146.69 12.98 146.85 12.54L146.85 12.54L146.85 12.54Q147.01 12.11 147.43 11.63L147.43 11.63L147.43 11.63Q147.48 12.05 147.89 12.63L147.89 12.63L147.89 12.63Q148.30 13.20 149.13 13.69L149.13 13.69L149.13 13.69Q149.90 14.14 150.72 14.34L150.72 14.34L150.72 14.34Q151.54 14.55 152.25 14.55L152.25 14.55L152.25 14.55Q153.03 14.55 153.52 14.35L153.52 14.35L153.52 14.35Q154.01 14.15 154.29 13.88L154.29 13.88L154.29 13.88Q154.57 13.61 154.69 13.33L154.69 13.33L154.69 13.33Q154.80 13.05 154.81 12.88L154.81 12.88L154.81 12.88Q154.80 12.60 154.55 12.34L154.55 12.34L154.55 12.34Q154.31 12.08 153.89 11.84L153.89 11.84L153.89 11.84Q153.48 11.59 152.94 11.34L152.94 11.34L152.94 11.34Q152.39 11.09 151.80 10.84L151.80 10.84L151.80 10.84Q150.92 10.44 150.28 10.10L150.28 10.10L150.28 10.10Q149.65 9.76 149.23 9.40L149.23 9.40L149.23 9.40Q148.82 9.04 148.63 8.65L148.63 8.65L148.63 8.65Q148.44 8.26 148.44 7.76L148.44 7.76L148.44 7.76Q148.44 6.97 148.92 6.27L148.92 6.27L148.92 6.27Q149.39 5.57 150.29 5.21L150.29 5.21L150.29 5.21Q150.74 5.01 151.25 4.93L151.25 4.93L151.25 4.93Q151.76 4.84 152.25 4.84L152.25 4.84L152.25 4.84Q153.17 4.84 154.06 5.10L154.06 5.10L154.06 5.10Q154.94 5.35 155.82 5.74ZM163.94 14.38L163.94 14.38L163.94 14.38Q163.94 13.87 164.10 13.07L164.10 13.07L164.10 13.07Q164.26 12.26 164.52 11.33L164.52 11.33L164.52 11.33Q164.78 10.40 165.12 9.43L165.12 9.43L165.12 9.43Q165.45 8.46 165.80 7.60L165.80 7.60L165.80 7.60Q166.15 6.75 166.49 6.10L166.49 6.10L166.49 6.10Q166.82 5.46 167.09 5.18L167.09 5.18L167.09 5.18Q167.23 5.19 167.46 5.29L167.46 5.29L167.46 5.29Q167.69 5.38 167.93 5.50L167.93 5.50L167.93 5.50Q168.17 5.63 168.36 5.78L168.36 5.78L168.36 5.78Q168.56 5.92 168.62 6.05L168.62 6.05L168.62 6.05Q168.21 6.41 167.81 7.15L167.81 7.15L167.81 7.15Q167.41 7.88 167.04 8.82L167.04 8.82L167.04 8.82Q166.67 9.76 166.35 10.80L166.35 10.80L166.35 10.80Q166.03 11.84 165.79 12.82L165.79 12.82L165.79 12.82Q165.55 13.80 165.42 14.64L165.42 14.64L165.42 14.64Q165.28 15.48 165.28 16.00L165.28 16.00L165.28 16.00Q165.28 16.24 165.33 16.30L165.33 16.30L165.33 16.30Q165.02 16.28 164.88 16.19L164.88 16.19L164.88 16.19Q164.74 16.10 164.66 16.00L164.66 16.00L164.66 16.00Q164.58 15.89 164.52 15.79L164.52 15.79L164.52 15.79Q164.46 15.68 164.33 15.62L164.33 15.62L164.33 15.62Q164.23 15.58 164.16 15.43L164.16 15.43L164.16 15.43Q164.09 15.27 164.04 15.09L164.04 15.09L164.04 15.09Q164.00 14.90 163.97 14.70L163.97 14.70L163.97 14.70Q163.94 14.50 163.94 14.38ZM181.38 4.98L181.38 4.98L181.38 4.98Q181.65 5.10 181.93 5.27L181.93 5.27L181.93 5.27Q182.21 5.45 182.45 5.63L182.45 5.63L182.45 5.63Q182.69 5.81 182.85 5.98L182.85 5.98L182.85 5.98Q183.01 6.16 183.02 6.27L183.02 6.27L183.02 6.27Q182.78 6.22 182.55 6.20L182.55 6.20L182.55 6.20Q182.31 6.17 182.11 6.17L182.11 6.17L182.11 6.17Q181.48 6.17 180.86 6.48L180.86 6.48L180.86 6.48Q180.24 6.79 179.68 7.32L179.68 7.32L179.68 7.32Q179.12 7.85 178.64 8.57L178.64 8.57L178.64 8.57Q178.16 9.28 177.82 10.09L177.82 10.09L177.82 10.09Q177.48 10.91 177.28 11.77L177.28 11.77L177.28 11.77Q177.09 12.64 177.09 13.48L177.09 13.48L177.09 13.48Q177.09 14.57 177.45 15.11L177.45 15.11L177.45 15.11Q177.81 15.64 178.51 15.64L178.51 15.64L178.51 15.64Q178.85 15.64 179.24 15.51L179.24 15.51L179.24 15.51Q179.63 15.37 180.04 15.13L180.04 15.13L180.04 15.13Q180.45 14.90 180.84 14.56L180.84 14.56L180.84 14.56Q181.23 14.22 181.57 13.82L181.57 13.82L181.57 13.82Q182.06 13.23 182.45 12.48L182.45 12.48L182.45 12.48Q182.84 11.73 183.11 10.89L183.11 10.89L183.11 10.89Q183.39 10.05 183.53 9.16L183.53 9.16L183.53 9.16Q183.68 8.27 183.68 7.42L183.68 7.42L183.68 7.42Q183.68 7.08 183.67 6.85L183.67 6.85L183.67 6.85Q183.65 6.62 183.63 6.46L183.63 6.46L183.63 6.46Q183.61 6.30 183.60 6.20L183.60 6.20L183.60 6.20Q183.58 6.10 183.57 6.03L183.57 6.03L183.57 6.03Q183.74 6.12 183.94 6.24L183.94 6.24L183.94 6.24Q184.14 6.36 184.32 6.59L184.32 6.59L184.32 6.59Q184.49 6.82 184.61 7.20L184.61 7.20L184.61 7.20Q184.73 7.57 184.73 8.18L184.73 8.18L184.73 8.18Q184.73 9.16 184.50 10.10L184.50 10.10L184.50 10.10Q184.27 11.05 183.85 11.90L183.85 11.90L183.85 11.90Q183.44 12.75 182.88 13.50L182.88 13.50L182.88 13.50Q182.32 14.24 181.68 14.80L181.68 14.80L181.68 14.80Q180.84 15.54 179.89 15.95L179.89 15.95L179.89 15.95Q178.93 16.35 178.05 16.35L178.05 16.35L178.05 16.35Q176.76 16.35 176.08 15.53L176.08 15.53L176.08 15.53Q175.41 14.71 175.41 13.12L175.41 13.12L175.41 13.12Q175.41 12.26 175.59 11.31L175.59 11.31L175.59 11.31Q175.78 10.36 176.13 9.44L176.13 9.44L176.13 9.44Q176.47 8.51 176.95 7.68L176.95 7.68L176.95 7.68Q177.42 6.85 177.99 6.21L177.99 6.21L177.99 6.21Q178.56 5.57 179.21 5.19L179.21 5.19L179.21 5.19Q179.86 4.82 180.54 4.82L180.54 4.82L180.54 4.82Q180.77 4.82 180.96 4.85L180.96 4.85L180.96 4.85Q181.16 4.89 181.38 4.98ZM193.30 16.24L193.30 16.24L193.30 16.24Q192.50 16.00 192.22 15.79L192.22 15.79L192.22 15.79Q191.94 15.57 191.94 15.19L191.94 15.19L191.94 15.19Q191.94 14.77 192.14 14.01L192.14 14.01L192.14 14.01Q192.33 13.24 192.65 12.31L192.65 12.31L192.65 12.31Q192.96 11.37 193.37 10.35L193.37 10.35L193.37 10.35Q193.77 9.32 194.19 8.39L194.19 8.39L194.19 8.39Q194.61 7.45 195.01 6.67L195.01 6.67L195.01 6.67Q195.41 5.89 195.72 5.46L195.72 5.46L195.62 4.87L195.62 4.87Q195.82 4.87 196.17 4.97L196.17 4.97L196.17 4.97Q196.52 5.07 196.87 5.21L196.87 5.21L196.87 5.21Q197.23 5.35 197.50 5.49L197.50 5.49L197.50 5.49Q197.78 5.64 197.81 5.74L197.81 5.74L197.81 5.74Q197.74 6.08 197.69 6.76L197.69 6.76L197.69 6.76Q197.65 7.43 197.65 8.20L197.65 8.20L197.65 8.20Q197.65 9.73 197.77 11.19L197.77 11.19L197.77 11.19Q197.89 12.66 198.32 14.17L198.32 14.17L198.32 14.17Q198.55 13.05 198.81 11.94L198.81 11.94L198.81 11.94Q199.07 10.82 199.35 9.81L199.35 9.81L199.35 9.81Q199.63 8.79 199.91 7.92L199.91 7.92L199.91 7.92Q200.19 7.06 200.44 6.40L200.44 6.40L200.44 6.40Q200.70 5.75 200.93 5.38L200.93 5.38L200.93 5.38Q201.15 5.01 201.33 4.98L201.33 4.98L201.33 4.98Q201.49 5.01 201.67 5.10L201.67 5.10L201.67 5.10Q201.85 5.19 202.02 5.32L202.02 5.32L202.02 5.32Q202.19 5.45 202.33 5.60L202.33 5.60L202.33 5.60Q202.47 5.75 202.55 5.91L202.55 5.91L202.55 5.91Q202.10 6.09 201.66 6.76L201.66 6.76L201.66 6.76Q201.22 7.43 200.82 8.39L200.82 8.39L200.82 8.39Q200.42 9.35 200.08 10.47L200.08 10.47L200.08 10.47Q199.74 11.59 199.48 12.68L199.48 12.68L199.48 12.68Q199.22 13.76 199.07 14.69L199.07 14.69L199.07 14.69Q198.93 15.61 198.91 16.17L198.91 16.17L198.91 16.17Q198.91 16.20 198.93 16.21L198.93 16.21L198.93 16.21Q198.88 16.23 198.83 16.23L198.83 16.23L198.83 16.23Q198.79 16.23 198.74 16.23L198.74 16.23L198.74 16.23Q198.10 16.23 197.60 16.07L197.60 16.07L197.60 16.07Q197.11 15.90 196.95 15.61L196.95 15.61L196.95 15.61Q196.66 14.43 196.46 13.34L196.46 13.34L196.46 13.34Q196.27 12.25 196.13 11.16L196.13 11.16L196.13 11.16Q196.00 10.07 195.92 8.95L195.92 8.95L195.92 8.95Q195.85 7.84 195.80 6.62L195.80 6.62L195.80 6.62Q195.54 7.04 195.24 7.72L195.24 7.72L195.24 7.72Q194.95 8.40 194.67 9.21L194.67 9.21L194.67 9.21Q194.39 10.02 194.13 10.92L194.13 10.92L194.13 10.92Q193.87 11.82 193.68 12.67L193.68 12.67L193.68 12.67Q193.48 13.52 193.37 14.29L193.37 14.29L193.37 14.29Q193.26 15.05 193.26 15.61L193.26 15.61L193.26 15.61Q193.26 15.90 193.26 16.03L193.26 16.03L193.26 16.03Q193.27 16.16 193.30 16.24Z"></path></g></svg>